<?xml version="1.0" standalone="no"?>
<!DOCTYPE svg PUBLIC "-//W3C//DTD SVG 20010904//EN"
 "http://www.w3.org/TR/2001/REC-SVG-20010904/DTD/svg10.dtd">
<svg version="1.0" xmlns="http://www.w3.org/2000/svg"
 width="800.000000pt" height="800.000000pt" viewBox="0 0 800.000000 800.000000"
 preserveAspectRatio="xMidYMid meet">
<metadata>
Created by potrace 1.11, written by Peter Selinger 2001-2013
</metadata>
<g transform="translate(0.000000,800.000000) scale(0.100000,-0.100000)"
fill="#000000" stroke="none">
<path d="M3705 7869 c-272 -24 -568 -71 -725 -114 -30 -9 -62 -17 -70 -19 -53
-13 -295 -96 -398 -137 -448 -178 -899 -494 -1227 -859 -432 -480 -691 -980
-787 -1520 -17 -99 -21 -172 -25 -518 l-6 -402 -47 -35 c-62 -46 -168 -159
-219 -234 -131 -192 -194 -404 -194 -651 0 -272 64 -483 214 -708 202 -303
530 -492 884 -509 l120 -6 -3 52 -4 51 51 0 c51 0 51 0 51 -32 0 -62 4 -63
145 -44 146 19 192 35 200 68 4 18 -59 612 -90 848 -13 97 -18 137 -20 160 -2
14 -6 52 -10 85 -5 33 -9 69 -10 80 -1 11 -4 45 -8 75 -9 67 -7 47 -62 530
-25 217 -47 405 -50 416 -3 12 -12 25 -22 28 -21 8 -305 9 -326 0 -13 -5 -15
-15 -10 -49 l5 -42 -47 -7 c-26 -4 -48 -6 -50 -4 -2 2 -5 25 -7 52 l-3 48 -52
-5 -53 -6 0 47 c1 123 21 511 31 575 29 199 117 464 230 692 88 178 130 243
185 287 27 22 162 154 299 293 208 210 271 267 372 339 428 300 860 484 1344
570 46 9 94 18 107 20 13 3 53 8 90 12 37 3 69 7 72 9 12 8 277 20 425 20 136
0 323 -8 440 -19 53 -5 159 -18 180 -22 10 -2 37 -6 60 -10 223 -32 512 -109
720 -191 557 -220 989 -545 1344 -1012 35 -46 79 -92 98 -104 29 -17 47 -45
107 -166 110 -224 179 -425 226 -656 12 -60 25 -120 28 -134 5 -25 5 -426 -1
-566 -4 -77 -1 -75 -79 -63 l-37 7 -7 -55 -6 -54 -37 6 c-63 10 -63 10 -56 58
l7 43 -39 6 c-68 11 -260 20 -286 13 -17 -4 -29 -16 -36 -38 -9 -27 -141 -847
-157 -968 -2 -19 -6 -44 -9 -56 -2 -12 -7 -39 -10 -60 -4 -21 -8 -50 -11 -64
-4 -26 -59 -371 -119 -750 -46 -294 -46 -292 -10 -316 24 -15 295 -68 304 -58
2 2 7 21 10 41 6 38 7 38 58 41 l51 3 -1 -48 -2 -48 65 -3 c141 -7 346 34 487
98 211 96 428 300 550 517 192 344 209 788 43 1128 -52 104 -152 237 -237 312
l-68 61 6 168 c11 272 10 627 -2 732 -37 346 -149 688 -331 1010 -162 287
-347 524 -606 776 -302 294 -651 526 -1032 689 -326 139 -735 240 -1142 283
-170 17 -621 25 -763 13z"/>
<path d="M3984 6073 c-6 -10 -22 -38 -36 -63 -14 -25 -75 -130 -135 -235 -60
-104 -172 -298 -248 -430 -76 -132 -141 -244 -145 -250 -4 -5 -18 -30 -32 -55
-14 -25 -51 -90 -83 -145 -52 -90 -127 -220 -190 -330 -37 -64 -195 -339 -280
-485 -119 -206 -226 -391 -247 -428 -10 -18 -53 -93 -95 -165 -172 -299 -412
-714 -430 -747 -11 -19 -105 -181 -208 -360 -225 -389 -223 -385 -251 -435
-12 -22 -61 -107 -109 -190 -48 -82 -95 -163 -105 -180 -21 -38 -235 -409
-461 -800 -95 -165 -220 -383 -279 -485 l-107 -185 1729 -3 c950 -1 2506 -1
3457 0 l1728 3 -144 250 c-80 138 -155 268 -168 290 -173 302 -226 394 -305
530 -51 88 -103 178 -115 200 -13 22 -71 123 -130 225 -59 102 -118 203 -130
225 -12 22 -46 81 -74 130 -29 50 -63 108 -76 130 -12 22 -90 158 -173 302
-84 144 -160 277 -170 295 -10 18 -84 146 -164 283 -80 138 -156 270 -170 295
-14 25 -74 128 -133 230 -59 102 -119 205 -133 230 -14 25 -98 171 -187 325
-89 154 -173 300 -187 325 -14 25 -49 86 -78 135 -29 50 -64 110 -78 135 -14
25 -66 115 -115 200 -165 284 -233 403 -364 630 -317 551 -358 620 -363 620
-3 0 -10 -8 -16 -17z"/>
</g>
</svg>
